<svg width="179" height="70" viewBox="0 0 179 70" fill="none" xmlns="http://www.w3.org/2000/svg">
<path d="M8.74179 19.2893H5.19673V33.8544H0V0.712891H5.19673V13.9929H8.74179V0.712891H13.9385V33.8934H8.74179V19.2893Z" fill="white"/>
<path d="M23.0603 34.2505H22.0647C17.9628 34.2505 15.7725 32.0663 15.7725 27.9709V21.3013H20.87V27.1128C20.87 28.634 21.3877 29.453 22.5426 29.453C23.7772 29.453 24.2152 28.634 24.2152 26.6058V25.8647C24.2152 23.4855 23.9763 22.6664 22.1045 20.2872L18.8788 16.1139C16.6884 13.3446 16.0512 11.1994 16.0512 7.88412V6.83102C16.0512 2.42363 18.3212 0.356445 22.3833 0.356445H23.3391C27.5605 0.356445 29.2331 2.18961 29.2331 6.12896V11.5894H24.255V6.79202C24.255 5.66092 24.0161 4.84185 22.7815 4.84185C21.547 4.84185 21.2682 5.58291 21.2682 7.18205V7.80611C21.2682 9.67828 21.6266 10.6924 23.3789 12.9156L26.6445 17.0499C28.9543 20.0142 29.711 21.6913 29.711 25.4357V26.4888C29.711 31.3642 27.5605 34.2505 23.0603 34.2505Z" fill="white"/>
<path d="M43.3679 0.712891V5.54765H36.7326V14.2424H41.9202V19.2721H36.7326V28.8636H43.6494V33.8934H31.5449V0.712891H43.3679Z" fill="white"/>
<path d="M57.6947 27.6623H53.8532L53.1585 33.8934H48.418L52.6681 0.712891H58.9207L63.4569 33.8934H58.3486L57.6947 27.6623ZM57.1226 22.7164L55.7331 10.4489L54.3845 22.7164H57.1226Z" fill="white"/>
<path d="M69.8002 33.8545H64.5576V0.712891H73.092C76.5871 0.712891 78.3346 2.15214 78.3346 5.8475V11.7212C78.3346 14.483 76.9935 15.5332 76.0588 15.9611C77.2373 16.4668 78.3346 17.3615 78.3346 19.5787V31.2094C78.3346 32.5319 78.6191 33.1543 78.8629 33.66V33.8934H73.661C73.4172 33.5433 73.1327 32.9598 73.1327 31.1705V21.1346C73.1327 19.6565 72.8482 19.0341 71.182 19.0341H69.8408V33.8545H69.8002ZM69.8002 14.3274H71.182C72.645 14.3274 73.092 13.4327 73.092 11.9546V7.32565C73.092 5.8864 72.7669 5.18622 71.182 5.18622H69.8002V14.3274Z" fill="white"/>
<path d="M88.777 5.50866V33.8934H83.6205V5.50866H79.2295V0.712891H93.168V5.54765H88.777V5.50866Z" fill="white"/>
<path d="M107.354 27.6623H103.606L102.928 33.8934H98.3032L102.45 0.712891H108.55L112.975 33.8934H107.992L107.354 27.6623ZM106.796 22.7164L105.44 10.4489L104.124 22.7164H106.796Z" fill="white"/>
<path d="M118.546 0.712891L123.136 18.5104V0.712891H128.014V33.8934H123.673L118.546 14.8107V33.8934H113.709V0.712891H118.546Z" fill="white"/>
<path d="M129.848 0.712891H138.124C142.74 0.712891 144.153 3.16638 144.153 7.09974V27.3118C144.153 31.362 142.532 33.8934 138.124 33.8934H129.89V0.712891H129.848ZM135.254 29.0643H136.543C138.165 29.0643 138.623 28.2464 138.623 26.494V7.80074C138.623 5.89247 138.082 5.23042 136.751 5.23042H135.213V29.0643H135.254Z" fill="white"/>
<path d="M0 35.6782H7.8344C12.2264 35.6782 13.5717 38.1317 13.5717 42.0651V62.2771C13.5717 66.3273 12.0286 68.8587 7.8344 68.8587H0V35.6782ZM5.10423 64.0685H6.33083C7.87397 64.0685 8.30922 63.2507 8.30922 61.4982V42.805C8.30922 40.8967 7.79484 40.2347 6.52867 40.2347H5.06466V64.0685H5.10423Z" fill="white"/>
<path d="M27.9547 35.6782V40.513H21.1409V49.2077H26.4681V54.2374H21.1409V63.829H28.2438V68.8587H15.7725V35.6782H27.9547Z" fill="white"/>
<path d="M36.4783 68.8585H35.4536C31.2319 68.8585 28.9775 66.6923 28.9775 62.6307V56.0161H34.224V61.7797C34.224 63.2883 34.7568 64.1007 35.9455 64.1007C37.2161 64.1007 37.667 63.2883 37.667 61.2769V60.5419C37.667 58.1823 37.421 57.37 35.4946 55.0104L32.1336 50.9488C29.8793 48.2024 29.2235 46.0749 29.2235 42.7869V41.7425C29.2235 37.3714 31.5598 35.3213 35.7405 35.3213H36.7242C41.11 35.3213 42.7905 37.1393 42.7905 41.0462V46.4617H37.667V41.7038C37.667 40.582 37.421 39.7697 36.1504 39.7697C34.8798 39.7697 34.5929 40.5047 34.5929 42.0906V42.7095C34.5929 44.5663 34.9618 45.572 36.7652 47.7769L40.1262 51.8772C42.5035 54.817 43.2823 56.4803 43.2823 60.1938V61.2382C43.3233 65.9961 41.1099 68.8585 36.4783 68.8585Z" fill="white"/>
<path d="M49.8852 68.8587H44.75V35.6782H49.8852V68.8587Z" fill="white"/>
<path d="M56.729 69.2153C53.6585 69.2153 51.7192 66.5722 51.7192 63.1517V42.4344C51.7192 38.7418 53.2141 35.3213 58.1431 35.3213H59.1531C64.7689 35.3213 65.4154 38.8195 65.4154 42.7453V46.127H60.3248V42.3955C60.3248 40.9185 59.9612 40.1411 58.6683 40.1411C57.5775 40.1411 57.0522 40.9573 57.0522 42.3955V61.7524C57.0522 63.3072 57.6987 64.1234 58.7491 64.1234C60.0824 64.1234 60.6884 63.2294 60.6884 61.9856V53.7065H58.3451V48.6146H65.6578V68.7489H62.7085C62.6681 68.5545 62.264 66.922 61.8196 65.4839C61.456 66.6111 59.6783 69.1764 57.0522 69.1764H56.729V69.2153Z" fill="white"/>
<path d="M72.3291 35.6782L76.9183 53.4757V35.6782H81.797V68.8587H77.4558L72.3291 49.776V68.8587H67.4917V35.6782H72.3291Z" fill="white"/>
<path d="M95.5335 68.8585H94.5088C90.287 68.8585 88.0327 66.6923 88.0327 62.6307V56.0161H93.2792V61.7797C93.2792 63.2883 93.812 64.1007 95.0007 64.1007C96.2713 64.1007 96.7222 63.2883 96.7222 61.2769V60.5419C96.7222 58.1823 96.4762 57.37 94.5498 55.0104L91.1888 50.9488C88.9345 48.2024 88.2786 46.0749 88.2786 42.7869V41.7425C88.2786 37.3714 90.615 35.3213 94.7957 35.3213H95.7794C100.124 35.3213 101.846 37.1393 101.846 41.0462V46.4617H96.7222V41.7038C96.7222 40.582 96.4762 39.7697 95.2056 39.7697C93.935 39.7697 93.6481 40.5047 93.6481 42.0906V42.7095C93.6481 44.5663 94.0169 45.572 95.8204 47.7769L99.1814 51.8772C101.559 54.817 102.337 56.4803 102.337 60.1938V61.2382C102.378 65.9961 100.165 68.8585 95.5335 68.8585Z" fill="white"/>
<path d="M112.216 62.0941V54.3891H117.377V62.0552C117.377 65.6352 116.158 69.2153 111.078 69.2153H109.9C104.576 69.2153 103.438 65.5574 103.438 62.2108V41.9756C103.438 38.5901 104.983 35.3213 109.737 35.3213H110.956C116.727 35.3213 117.377 38.9792 117.377 42.2091V48.124H112.216V42.2869C112.216 40.8471 111.769 40.1077 110.428 40.1077C109.128 40.1077 108.803 40.8082 108.803 42.2869V61.9773C108.803 63.4561 109.331 64.2343 110.469 64.2343C111.769 64.3511 112.216 63.4561 112.216 62.0941Z" fill="white"/>
<path d="M127.953 54.2936H124.408V68.8587H119.211V35.6782H124.408V48.9582H127.953V35.6782H133.149V68.8587H127.953V54.2936Z" fill="white"/>
<path d="M149.656 61.4236C149.656 66.0597 147.998 69.2153 142.817 69.2153H141.905C136.766 69.2153 134.983 66.0597 134.983 61.4236V42.9572C134.983 38.3601 136.849 35.3213 141.864 35.3213H142.775C147.998 35.3213 149.656 38.3601 149.656 42.9182V61.4236ZM144.185 42.6845C144.185 40.9313 143.563 40.1522 142.319 40.1522C140.952 40.1522 140.413 41.0093 140.413 42.6845V61.7742C140.413 63.2157 140.827 64.3065 142.361 64.3065C143.77 64.3065 144.185 63.1767 144.185 61.7742V42.6845Z" fill="white"/>
<path d="M165.428 61.4236C165.428 66.0597 163.812 69.2153 158.761 69.2153H157.872C152.861 69.2153 151.123 66.0597 151.123 61.4236V42.9572C151.123 38.3601 152.942 35.3213 157.831 35.3213H158.72C163.812 35.3213 165.428 38.3601 165.428 42.9182V61.4236ZM160.094 42.6845C160.094 40.9313 159.488 40.1522 158.276 40.1522C156.942 40.1522 156.417 41.0093 156.417 42.6845V61.7742C156.417 63.2157 156.821 64.3065 158.316 64.3065C159.69 64.3065 160.094 63.1767 160.094 61.7742V42.6845Z" fill="white"/>
<path d="M172.74 35.6782V63.7181H179V68.8587H167.629V35.6782H172.74Z" fill="white"/>
</svg>
