<svg width="67" height="67" viewBox="0 0 67 67" fill="none" xmlns="http://www.w3.org/2000/svg">
<path d="M33.4999 23.7292C32.3893 23.7292 31.3242 24.1703 30.5389 24.9557C29.7536 25.741 29.3124 26.8061 29.3124 27.9167V28.2154C29.3124 28.5856 29.1654 28.9406 28.9036 29.2024C28.6418 29.4641 28.2868 29.6112 27.9166 29.6112C27.5464 29.6112 27.1914 29.4641 26.9296 29.2024C26.6678 28.9406 26.5208 28.5856 26.5208 28.2154V27.9167C26.5208 26.0657 27.2561 24.2905 28.5649 22.9817C29.8737 21.6728 31.6489 20.9375 33.4999 20.9375H33.8238C35.183 20.9379 36.5096 21.3545 37.6251 22.1313C38.7405 22.9081 39.5914 24.0078 40.0632 25.2826C40.535 26.5574 40.6052 27.946 40.2644 29.2619C39.9235 30.5777 39.1879 31.7576 38.1564 32.643L36.004 34.4883C35.6569 34.7865 35.3783 35.1561 35.187 35.5719C34.9957 35.9877 34.8964 36.4398 34.8958 36.8975V38.3854C34.8958 38.7556 34.7487 39.1107 34.4869 39.3724C34.2252 39.6342 33.8701 39.7812 33.4999 39.7812C33.1297 39.7812 32.7747 39.6342 32.5129 39.3724C32.2511 39.1107 32.1041 38.7556 32.1041 38.3854V36.8975C32.1041 35.1555 32.8662 33.5028 34.1867 32.3694L36.3363 30.5269C36.9357 30.0133 37.3635 29.3284 37.562 28.5643C37.7604 27.8003 37.7201 26.9938 37.4465 26.2534C37.1728 25.5129 36.6789 24.8741 36.0312 24.4228C35.3835 23.9715 34.6131 23.7294 33.8238 23.7292H33.4999ZM33.4999 46.0625C34.0552 46.0625 34.5878 45.8419 34.9804 45.4493C35.3731 45.0566 35.5937 44.524 35.5937 43.9688C35.5937 43.4135 35.3731 42.8809 34.9804 42.4882C34.5878 42.0956 34.0552 41.875 33.4999 41.875C32.9446 41.875 32.4121 42.0956 32.0194 42.4882C31.6268 42.8809 31.4062 43.4135 31.4062 43.9688C31.4062 44.524 31.6268 45.0566 32.0194 45.4493C32.4121 45.8419 32.9446 46.0625 33.4999 46.0625Z" fill="black"/>
<path d="M9.77075 33.5C9.77075 27.2067 12.2708 21.1711 16.7209 16.721C21.1709 12.2709 27.2066 9.77087 33.4999 9.77087C39.7933 9.77087 45.8289 12.2709 50.279 16.721C54.7291 21.1711 57.2291 27.2067 57.2291 33.5C57.2291 39.7934 54.7291 45.829 50.279 50.2791C45.8289 54.7292 39.7933 57.2292 33.4999 57.2292C27.2066 57.2292 21.1709 54.7292 16.7209 50.2791C12.2708 45.829 9.77075 39.7934 9.77075 33.5ZM33.4999 12.5625C27.9469 12.5625 22.6214 14.7684 18.6949 18.695C14.7683 22.6215 12.5624 27.9471 12.5624 33.5C12.5624 39.053 14.7683 44.3785 18.6949 48.3051C22.6214 52.2316 27.9469 54.4375 33.4999 54.4375C39.0529 54.4375 44.3784 52.2316 48.305 48.3051C52.2315 44.3785 54.4374 39.053 54.4374 33.5C54.4374 27.9471 52.2315 22.6215 48.305 18.695C44.3784 14.7684 39.0529 12.5625 33.4999 12.5625Z" fill="black"/>
</svg>
